<?xml version="1.0" encoding="UTF-8" standalone="no"?>
<!-- Created with Inkscape (http://www.inkscape.org/) -->

<svg
   xmlns:dc="http://purl.org/dc/elements/1.1/"
   xmlns:cc="http://creativecommons.org/ns#"
   xmlns:rdf="http://www.w3.org/1999/02/22-rdf-syntax-ns#"
   xmlns:svg="http://www.w3.org/2000/svg"
   xmlns="http://www.w3.org/2000/svg"
   xmlns:xlink="http://www.w3.org/1999/xlink"
   xmlns:sodipodi="http://sodipodi.sourceforge.net/DTD/sodipodi-0.dtd"
   xmlns:inkscape="http://www.inkscape.org/namespaces/inkscape"
   width="210mm"
   height="297mm"
   viewBox="0 0 210 297"
   version="1.1"
   id="svg8"
   inkscape:version="0.92.5 (2060ec1f9f, 2020-04-08)"
   sodipodi:docname="star-bar.svg">
  <defs
     id="defs2">
    <linearGradient
       inkscape:collect="always"
       id="linearGradient1080">
      <stop
         style="stop-color:#e6e6e6;stop-opacity:0.49122807"
         offset="0"
         id="stop1076" />
      <stop
         style="stop-color:#e6e6e6;stop-opacity:0.214"
         offset="1"
         id="stop1078" />
    </linearGradient>
    <linearGradient
       inkscape:collect="always"
       xlink:href="#linearGradient1080"
       id="linearGradient1082"
       x1="27.174641"
       y1="94.832123"
       x2="117.17432"
       y2="77.83213"
       gradientUnits="userSpaceOnUse"
       gradientTransform="translate(4.554687,13.288706)" />
  </defs>
  <sodipodi:namedview
     id="base"
     pagecolor="#ffffff"
     bordercolor="#666666"
     borderopacity="1.0"
     inkscape:pageopacity="0.0"
     inkscape:pageshadow="2"
     inkscape:zoom="1"
     inkscape:cx="282.1651"
     inkscape:cy="797.7877"
     inkscape:document-units="mm"
     inkscape:current-layer="layer1"
     showgrid="false"
     inkscape:window-width="1920"
     inkscape:window-height="1025"
     inkscape:window-x="0"
     inkscape:window-y="27"
     inkscape:window-maximized="1" />
  <metadata
     id="metadata5">
    <rdf:RDF>
      <cc:Work
         rdf:about="">
        <dc:format>image/svg+xml</dc:format>
        <dc:type
           rdf:resource="http://purl.org/dc/dcmitype/StillImage" />
        <dc:title></dc:title>
      </cc:Work>
    </rdf:RDF>
  </metadata>
  <g
     inkscape:label="Layer 1"
     inkscape:groupmode="layer"
     id="layer1">
    <path
       style="opacity:0.491;fill:url(#linearGradient1082);fill-opacity:1;stroke:none;stroke-width:0.46631888;stroke-linecap:round;stroke-linejoin:bevel;stroke-miterlimit:4;stroke-dasharray:none;stroke-opacity:1"
       d="m 40.735722,91.120841 -2.787019,5.591387 -6.219536,0.890897 4.495467,4.358915 -1.068165,6.14793 5.5652,-2.89749 5.559473,2.90835 -1.056191,-6.15 4.504319,-4.350135 -6.217972,-0.902777 z m 18.00011,0 -2.787028,5.591387 -6.219533,0.890897 4.495474,4.358915 -1.068168,6.14793 5.565194,-2.89749 5.559483,2.90835 -1.056202,-6.15 4.504318,-4.350135 -6.217972,-0.902777 z m 18.000101,0 -2.78703,5.591387 -6.219533,0.890897 4.495475,4.358915 -1.068168,6.14793 5.565205,-2.89749 5.558948,2.90835 -1.056191,-6.15 4.504843,-4.350135 -6.217973,-0.902777 z m 17.999588,0 -2.786506,5.591387 -6.219533,0.890897 4.495474,4.358915 -1.068692,6.14793 5.565204,-2.89749 5.559472,2.90835 -1.056192,-6.15 4.504322,-4.350135 -6.217972,-0.902777 z m 18.000099,0 -2.78649,5.591387 -6.22006,0.890897 4.49599,4.358915 -1.0687,6.14793 5.56521,-2.89749 5.55948,2.90835 -1.0562,-6.15 4.50432,-4.350135 -6.21797,-0.902777 z"
       id="path916"
       inkscape:connector-curvature="0" />
    <path
       inkscape:connector-curvature="0"
       style="opacity:1;fill:#e9ecef;fill-opacity:1;stroke:none;stroke-width:1.17375052;stroke-linecap:round;stroke-linejoin:bevel;stroke-miterlimit:4;stroke-dasharray:none;stroke-opacity:1"
       d="m 31.729328,91.120834 v 6.482288 l 6.219258,-0.8909 2.78691,-5.591388 z m 9.006168,0 2.77554,5.597078 6.218227,0.90279 -4.504119,4.350118 1.055749,6.15001 h 18.000453 l -5.559351,-2.90835 -5.565552,2.8975 1.068152,-6.14795 -4.495332,-4.358908 6.219775,-0.8909 2.786909,-5.591388 z m 18.000451,0 2.775542,5.597078 6.217709,0.90279 -4.504119,4.350118 1.056267,6.15001 h 17.999418 l -5.558833,-2.90835 -5.565034,2.8975 1.068152,-6.14795 -4.49585,-4.358908 6.219775,-0.8909 2.786909,-5.591388 z m 17.999935,0 2.775542,5.597078 6.218226,0.90279 -4.505151,4.350118 1.056265,6.15001 H 100.2807 l -5.559351,-2.90835 -5.565037,2.8975 1.068668,-6.14795 -4.495331,-4.358908 6.219258,-0.8909 2.786394,-5.591388 z m 17.99942,0 2.77554,5.597078 6.218228,0.90279 -4.50412,4.350118 1.05575,6.15001 h 18.00045 l -5.55935,-2.90835 -5.56555,2.8975 1.06867,-6.14795 -4.49585,-4.358908 6.2203,-0.8909 2.78638,-5.591388 z m 18.000448,0 2.77556,5.597078 6.21769,0.90279 v -6.499868 z m 8.99326,6.499868 -4.50411,4.350118 1.05625,6.15001 h 3.44786 z m -75.448117,10.500128 -5.559349,-2.90835 -5.565037,2.8975 1.068152,-6.14795 -4.495331,-4.358908 v 10.517708 z"
       id="rect927-3" />
  </g>
</svg>
