<?xml version="1.0" encoding="UTF-8" standalone="no"?>
<!-- Created with Inkscape (http://www.inkscape.org/) -->

<svg
   xmlns:dc="http://purl.org/dc/elements/1.1/"
   xmlns:cc="http://creativecommons.org/ns#"
   xmlns:rdf="http://www.w3.org/1999/02/22-rdf-syntax-ns#"
   xmlns:svg="http://www.w3.org/2000/svg"
   xmlns="http://www.w3.org/2000/svg"
   xmlns:xlink="http://www.w3.org/1999/xlink"
   xmlns:sodipodi="http://sodipodi.sourceforge.net/DTD/sodipodi-0.dtd"
   xmlns:inkscape="http://www.inkscape.org/namespaces/inkscape"
   width="90"
   height="17"
   viewBox="0 0 23.812501 4.4979168"
   version="1.1"
   id="svg8"
   inkscape:version="0.92.5 (2060ec1f9f, 2020-04-08)"
   sodipodi:docname="star-bar.svg">
  <defs
     id="defs2">
    <linearGradient
       inkscape:collect="always"
       id="linearGradient1080">
      <stop
         style="stop-color:#e6e6e6;stop-opacity:0.49122807"
         offset="0"
         id="stop1076" />
      <stop
         style="stop-color:#e6e6e6;stop-opacity:0.214"
         offset="1"
         id="stop1078" />
    </linearGradient>
    <linearGradient
       inkscape:collect="always"
       xlink:href="#linearGradient1080"
       id="linearGradient1082"
       x1="27.174641"
       y1="94.832123"
       x2="117.17432"
       y2="77.83213"
       gradientUnits="userSpaceOnUse"
       gradientTransform="translate(-27.17448,202.16786)" />
  </defs>
  <sodipodi:namedview
     id="base"
     pagecolor="#ffffff"
     bordercolor="#666666"
     borderopacity="1.0"
     inkscape:pageopacity="0.0"
     inkscape:pageshadow="2"
     inkscape:zoom="4"
     inkscape:cx="42.477989"
     inkscape:cy="-8.4498016"
     inkscape:document-units="mm"
     inkscape:current-layer="layer1"
     showgrid="false"
     inkscape:window-width="1920"
     inkscape:window-height="1025"
     inkscape:window-x="0"
     inkscape:window-y="27"
     inkscape:window-maximized="1"
     units="px" />
  <metadata
     id="metadata5">
    <rdf:RDF>
      <cc:Work
         rdf:about="">
        <dc:format>image/svg+xml</dc:format>
        <dc:type
           rdf:resource="http://purl.org/dc/dcmitype/StillImage" />
        <dc:title></dc:title>
      </cc:Work>
    </rdf:RDF>
  </metadata>
  <g
     inkscape:label="Layer 1"
     inkscape:groupmode="layer"
     id="layer1"
     transform="translate(0,-292.50207)">
    <path
       style="opacity:0.49100001;fill:url(#linearGradient1082);fill-opacity:1;stroke:none;stroke-width:0.46631888;stroke-linecap:round;stroke-linejoin:bevel;stroke-miterlimit:4;stroke-dasharray:none;stroke-opacity:1"
       d="M 9.006555,280 6.219536,285.59138 0,286.48228 l 4.495467,4.35892 -1.068165,6.14793 5.5652,-2.89749 5.559473,2.90835 -1.056191,-6.15 4.504319,-4.35014 -6.217972,-0.90278 z m 18.00011,0 -2.787028,5.59138 -6.219533,0.8909 4.495474,4.35892 -1.068168,6.14793 5.565194,-2.89749 5.559483,2.90835 -1.056202,-6.15 4.504318,-4.35014 -6.217972,-0.90278 z m 18.000101,0 -2.78703,5.59138 -6.219533,0.8909 4.495475,4.35892 -1.068168,6.14793 5.565205,-2.89749 5.558948,2.90835 -1.056191,-6.15 4.504843,-4.35014 -6.217973,-0.90278 z m 17.999588,0 -2.786506,5.59138 -6.219533,0.8909 4.495474,4.35892 -1.068692,6.14793 5.565204,-2.89749 5.559472,2.90835 -1.056192,-6.15 4.504322,-4.35014 -6.217972,-0.90278 z m 18.000099,0 -2.78649,5.59138 -6.22006,0.8909 4.49599,4.35892 -1.0687,6.14793 5.56521,-2.89749 5.55948,2.90835 -1.0562,-6.15 4.50432,-4.35014 -6.21797,-0.90278 z"
       id="path916"
       inkscape:connector-curvature="0" />
    <path
       inkscape:connector-curvature="0"
       style="opacity:1;fill:#e9ecef;fill-opacity:1;stroke:none;stroke-width:0.31055483;stroke-linecap:round;stroke-linejoin:bevel;stroke-miterlimit:4;stroke-dasharray:none;stroke-opacity:1"
       d="m 1.61e-4,292.50207 v 1.71511 l 1.645512,-0.23572 0.7373699,-1.47939 z m 2.3828819,0 0.7343617,1.4809 1.6452392,0.23886 -1.1917148,1.15097 0.2793336,1.62719 h 4.7626198 l -1.4709116,-0.7695 -1.4725523,0.76663 0.2826152,-1.62665 -1.1893899,-1.15329 1.6456488,-0.23572 0.7373697,-1.47939 z m 4.7626194,0 0.7343621,1.4809 1.6451022,0.23886 -1.1917148,1.15097 0.2794706,1.62719 h 4.7623456 l -1.470774,-0.7695 -1.472415,0.76663 0.282615,-1.62665 -1.1895271,-1.15329 1.6456491,-0.23572 0.737369,-1.47939 z m 4.7624827,0 0.734362,1.4809 1.645239,0.23886 -1.191988,1.15097 0.27947,1.62719 h 4.762484 l -1.470912,-0.7695 -1.472416,0.76663 0.282752,-1.62665 -1.18939,-1.15329 1.645512,-0.23572 0.737233,-1.47939 z m 4.762347,0 0.734361,1.4809 1.64524,0.23886 -1.191715,1.15097 0.279334,1.62719 h 4.762619 l -1.470912,-0.7695 -1.472552,0.76663 0.282753,-1.62665 -1.189527,-1.15329 1.645787,-0.23572 0.73723,-1.47939 z m 4.762618,0 0.734367,1.4809 1.645097,0.23886 v -1.71976 z m 2.379467,1.71976 -1.191713,1.15097 0.279467,1.62719 h 0.912246 z m -19.9623144,2.77816 -1.4709111,-0.7695 -1.47241606,0.76663 0.28261526,-1.62665 -1.1893897,-1.15329 v 2.78281 z"
       id="rect927-3" />
  </g>
</svg>
